<?xml version="1.0" encoding="utf-8"?>
<!-- Generator: Adobe Illustrator 25.2.3, SVG Export Plug-In . SVG Version: 6.00 Build 0)  -->
<svg version="1.1" xmlns="http://www.w3.org/2000/svg" xmlns:xlink="http://www.w3.org/1999/xlink" x="0px" y="0px"
	 viewBox="0 0 612 792" style="enable-background:new 0 0 612 792;" xml:space="preserve">
<style type="text/css">
	.st0{fill:#E6E7E8;stroke:#000000;stroke-miterlimit:10;}
	.st1{fill:#F1F2F2;stroke:#000000;stroke-width:4;stroke-miterlimit:10;}
	.st2{fill:#00A14B;stroke:#000000;stroke-miterlimit:10;}
	.st3{fill:#808285;stroke:#000000;stroke-width:0.5;stroke-miterlimit:10;}
</style>
<g id="Layer_1">
	<rect x="50.4" y="1" class="st0" width="560.65" height="790"/>
</g>
<g id="Layer_2">
	<g>
		<rect x="200.05" y="239.74" width="381.57" height="38.66"/>
		<path class="st1" d="M154.57,280.43h-16.22c-6.22,0-11.26-5.04-11.26-11.26v-20.18c0-6.22,5.04-11.26,11.26-11.26h16.22
			c6.22,0,11.26,5.04,11.26,11.26v20.18C165.83,275.38,160.79,280.43,154.57,280.43z"/>
		<polygon class="st2" points="155.55,271.94 155.62,272.03 146,282.63 123.36,257.68 132.98,247.07 145.92,261.33 179.73,224.07 
			189.35,234.68 		"/>
	</g>
	<g>
		<rect x="200.05" y="111.61" width="381.57" height="38.66"/>
		<path class="st1" d="M154.57,152.3h-16.22c-6.22,0-11.26-5.04-11.26-11.26v-20.18c0-6.22,5.04-11.26,11.26-11.26h16.22
			c6.22,0,11.26,5.04,11.26,11.26v20.18C165.83,147.25,160.79,152.3,154.57,152.3z"/>
		<polygon class="st2" points="155.55,141.61 155.62,141.7 146,152.3 123.36,127.35 132.98,116.74 145.92,131 179.73,93.74 
			189.35,104.35 		"/>
	</g>
	<g>
		<rect x="200.05" y="499.5" width="381.57" height="38.66"/>
		<path class="st1" d="M154.57,540.19h-16.22c-6.22,0-11.26-5.04-11.26-11.26v-20.18c0-6.22,5.04-11.26,11.26-11.26h16.22
			c6.22,0,11.26,5.04,11.26,11.26v20.18C165.83,535.15,160.79,540.19,154.57,540.19z"/>
		<polygon class="st2" points="155.55,532.62 155.62,532.71 146,543.31 123.36,518.36 132.98,507.75 145.92,522.01 179.73,484.75 
			189.35,495.36 		"/>
	</g>
	<g>
		<rect x="200.05" y="628.93" width="381.57" height="38.66"/>
		<path class="st1" d="M154.57,669.61h-16.22c-6.22,0-11.26-5.04-11.26-11.26v-20.18c0-6.22,5.04-11.26,11.26-11.26h16.22
			c6.22,0,11.26,5.04,11.26,11.26v20.18C165.83,664.57,160.79,669.61,154.57,669.61z"/>
		<polygon class="st2" points="155.55,662.95 155.62,663.04 146,673.64 123.36,648.69 132.98,638.08 145.92,652.34 179.73,615.08 
			189.35,625.69 		"/>
	</g>
	<g>
		<rect x="200.05" y="370.08" width="381.57" height="38.66"/>
		<path class="st1" d="M154.57,410.76h-16.22c-6.22,0-11.26-5.04-11.26-11.26v-20.18c0-6.22,5.04-11.26,11.26-11.26h16.22
			c6.22,0,11.26,5.04,11.26,11.26v20.18C165.83,405.72,160.79,410.76,154.57,410.76z"/>
		<polygon class="st2" points="155.55,402.28 155.62,402.37 146,412.97 123.36,388.02 132.98,377.41 145.92,391.67 179.73,354.41 
			189.35,365.02 		"/>
	</g>
</g>
<g id="Layer_3">
	<path class="st3" d="M102.04,69.33c0,5.79-2.37,10.48-5.28,10.48H5.49c-2.91,0-5.27-4.7-5.27-10.48c0-5.79,2.36-10.48,5.27-10.48
		h91.26C99.67,58.85,102.04,63.55,102.04,69.33z"/>
	<path class="st3" d="M102.04,391.71c0,5.79-2.37,10.48-5.28,10.48H5.49c-2.91,0-5.27-4.7-5.27-10.48c0-5.79,2.36-10.48,5.27-10.48
		h91.26C99.67,381.22,102.04,385.92,102.04,391.71z"/>
	<path class="st3" d="M102.04,714.08c0,5.79-2.37,10.48-5.28,10.48H5.49c-2.91,0-5.27-4.7-5.27-10.48c0-5.79,2.36-10.48,5.27-10.48
		h91.26C99.67,703.6,102.04,708.3,102.04,714.08z"/>
</g>
</svg>
